<svg width="14" height="16" viewBox="0 0 14 16" fill="none" xmlns="http://www.w3.org/2000/svg">
<path d="M12.625 0.6875H3.0625C2.46576 0.6875 1.89347 0.924553 1.47151 1.34651C1.04955 1.76847 0.8125 2.34076 0.8125 2.9375V14.75C0.8125 14.8992 0.871763 15.0423 0.977253 15.1477C1.08274 15.2532 1.22582 15.3125 1.375 15.3125H11.5C11.6492 15.3125 11.7923 15.2532 11.8977 15.1477C12.0032 15.0423 12.0625 14.8992 12.0625 14.75C12.0625 14.6008 12.0032 14.4577 11.8977 14.3523C11.7923 14.2468 11.6492 14.1875 11.5 14.1875H1.9375C1.9375 13.8891 2.05603 13.603 2.267 13.392C2.47798 13.181 2.76413 13.0625 3.0625 13.0625H12.625C12.7742 13.0625 12.9173 13.0032 13.0227 12.8977C13.1282 12.7923 13.1875 12.6492 13.1875 12.5V1.25C13.1875 1.10082 13.1282 0.957742 13.0227 0.852252C12.9173 0.746763 12.7742 0.6875 12.625 0.6875ZM6.4375 1.8125H9.8125V6.875L8.4618 5.8625C8.36443 5.78947 8.24601 5.75 8.1243 5.75C8.00259 5.75 7.88416 5.78947 7.7868 5.8625L6.4375 6.875V1.8125ZM12.0625 11.9375H3.0625C2.66745 11.937 2.27929 12.041 1.9375 12.2391V2.9375C1.9375 2.63913 2.05603 2.35298 2.267 2.142C2.47798 1.93103 2.76413 1.8125 3.0625 1.8125H5.3125V8C5.3125 8.10446 5.34159 8.20686 5.39651 8.29572C5.45143 8.38459 5.53001 8.4564 5.62344 8.50311C5.71688 8.54983 5.82148 8.56961 5.92552 8.56023C6.02956 8.55085 6.12893 8.51268 6.2125 8.45L8.125 7.01562L10.0382 8.45C10.1354 8.52288 10.2535 8.56235 10.375 8.5625C10.5242 8.5625 10.6673 8.50324 10.7727 8.39775C10.8782 8.29226 10.9375 8.14918 10.9375 8V1.8125H12.0625V11.9375Z" fill="#064FA4"/>
</svg>
