<svg width="17" height="15" viewBox="0 0 17 15" fill="none" xmlns="http://www.w3.org/2000/svg">
<path d="M16.3777 13.9358L12.4402 6.06078C12.3935 5.96736 12.3217 5.8888 12.2328 5.83389C12.144 5.77898 12.0416 5.7499 11.9371 5.7499C11.8327 5.7499 11.7303 5.77898 11.6415 5.83389C11.5526 5.8888 11.4808 5.96736 11.4341 6.06078L9.90758 9.11445C8.71107 9.04717 7.55984 8.63387 6.59375 7.92477C7.72725 6.71431 8.41404 5.15348 8.5407 3.5H10.25C10.3992 3.5 10.5423 3.44074 10.6477 3.33525C10.7532 3.22976 10.8125 3.08668 10.8125 2.9375C10.8125 2.78832 10.7532 2.64524 10.6477 2.53975C10.5423 2.43426 10.3992 2.375 10.25 2.375H6.3125V1.25C6.3125 1.10082 6.25324 0.957742 6.14775 0.852252C6.04226 0.746763 5.89918 0.6875 5.75 0.6875C5.60082 0.6875 5.45774 0.746763 5.35225 0.852252C5.24676 0.957742 5.1875 1.10082 5.1875 1.25V2.375H1.25C1.10082 2.375 0.957742 2.43426 0.852252 2.53975C0.746763 2.64524 0.6875 2.78832 0.6875 2.9375C0.6875 3.08668 0.746763 3.22976 0.852252 3.33525C0.957742 3.44074 1.10082 3.5 1.25 3.5H7.41148C7.2862 4.87858 6.70102 6.175 5.75 7.18086C5.15738 6.55555 4.7023 5.81304 4.41406 5.00117C4.39036 4.93034 4.35279 4.86493 4.30354 4.80877C4.25429 4.75261 4.19435 4.70683 4.12722 4.67408C4.06008 4.64134 3.9871 4.62229 3.91252 4.61806C3.83795 4.61382 3.76328 4.62448 3.69287 4.64941C3.62246 4.67435 3.55772 4.71305 3.50242 4.76328C3.44713 4.8135 3.4024 4.87423 3.37083 4.94193C3.33926 5.00962 3.3215 5.08293 3.31856 5.15757C3.31563 5.2322 3.32759 5.30668 3.35375 5.37664C3.68933 6.32577 4.21794 7.19506 4.90625 7.92969C3.84647 8.70846 2.56514 9.12735 1.25 9.125C1.10082 9.125 0.957742 9.18426 0.852252 9.28975C0.746763 9.39524 0.6875 9.53832 0.6875 9.6875C0.6875 9.83668 0.746763 9.97976 0.852252 10.0852C0.957742 10.1907 1.10082 10.25 1.25 10.25C2.88166 10.2518 4.46656 9.70503 5.75 8.6975C6.79736 9.51585 8.04764 10.0338 9.36687 10.1959L7.49656 13.9358C7.46351 14.0018 7.44379 14.0738 7.43853 14.1475C7.43327 14.2212 7.44258 14.2952 7.46592 14.3652C7.51306 14.5068 7.6145 14.6238 7.74793 14.6906C7.88136 14.7573 8.03584 14.7684 8.17739 14.7212C8.31894 14.6741 8.43597 14.5726 8.50273 14.4392L9.47234 12.5H14.402L15.3716 14.4392C15.4183 14.5327 15.4902 14.6113 15.5791 14.6661C15.668 14.721 15.7705 14.7501 15.875 14.75C15.9709 14.7499 16.0651 14.7254 16.1489 14.6787C16.2326 14.6319 16.3029 14.5646 16.3533 14.483C16.4037 14.4014 16.4324 14.3083 16.4366 14.2126C16.4409 14.1168 16.4206 14.0215 16.3777 13.9358ZM10.0348 11.375L11.9375 7.57039L13.8395 11.375H10.0348Z" fill="#064FA4"/>
</svg>
