<svg width="21" height="20" viewBox="0 0 21 20" fill="none" xmlns="http://www.w3.org/2000/svg">
<path d="M2.16675 15C2.16675 14.2234 2.16675 13.8352 2.29361 13.5288C2.46277 13.1205 2.78723 12.796 3.19561 12.6268C3.5019 12.5 3.89018 12.5 4.66675 12.5H16.3334C17.11 12.5 17.4982 12.5 17.8046 12.6268C18.2129 12.796 18.5374 13.1205 18.7066 13.5288C18.8334 13.8352 18.8334 14.2234 18.8334 15C18.8334 15.7766 18.8334 16.1648 18.7066 16.4712C18.5374 16.8795 18.2129 17.204 17.8046 17.3732C17.4982 17.5 17.11 17.5 16.3334 17.5H4.66675C3.89018 17.5 3.5019 17.5 3.19561 17.3732C2.78723 17.204 2.46277 16.8795 2.29361 16.4712C2.16675 16.1648 2.16675 15.7766 2.16675 15Z" stroke="#8C8C8C" stroke-width="1.5"/>
<path d="M2.16675 10C2.16675 9.22342 2.16675 8.83517 2.29361 8.52883C2.46277 8.12048 2.78723 7.79602 3.19561 7.62687C3.5019 7.5 3.89018 7.5 4.66675 7.5H16.3334C17.11 7.5 17.4982 7.5 17.8046 7.62687C18.2129 7.79602 18.5374 8.12048 18.7066 8.52883C18.8334 8.83517 18.8334 9.22342 18.8334 10C18.8334 10.7766 18.8334 11.1648 18.7066 11.4712C18.5374 11.8795 18.2129 12.204 17.8046 12.3732C17.4982 12.5 17.11 12.5 16.3334 12.5H4.66675C3.89018 12.5 3.5019 12.5 3.19561 12.3732C2.78723 12.204 2.46277 11.8795 2.29361 11.4712C2.16675 11.1648 2.16675 10.7766 2.16675 10Z" stroke="#8C8C8C" stroke-width="1.5"/>
<path d="M2.16675 5C2.16675 4.22343 2.16675 3.83515 2.29361 3.52886C2.46277 3.12048 2.78723 2.79603 3.19561 2.62687C3.5019 2.5 3.89018 2.5 4.66675 2.5H16.3334C17.11 2.5 17.4982 2.5 17.8046 2.62687C18.2129 2.79603 18.5374 3.12048 18.7066 3.52886C18.8334 3.83515 18.8334 4.22343 18.8334 5C18.8334 5.77657 18.8334 6.16485 18.7066 6.47114C18.5374 6.87952 18.2129 7.20398 17.8046 7.37313C17.4982 7.5 17.11 7.5 16.3334 7.5H4.66675C3.89018 7.5 3.5019 7.5 3.19561 7.37313C2.78723 7.20398 2.46277 6.87952 2.29361 6.47114C2.16675 6.16485 2.16675 5.77657 2.16675 5Z" stroke="#8C8C8C" stroke-width="1.5"/>
<path d="M4.66659 10.8333C5.12682 10.8333 5.49992 10.4602 5.49992 9.99996C5.49992 9.53972 5.12682 9.16663 4.66659 9.16663C4.20635 9.16663 3.83325 9.53972 3.83325 9.99996C3.83325 10.4602 4.20635 10.8333 4.66659 10.8333Z" fill="#8C8C8C"/>
<path d="M4.66659 5.83329C5.12682 5.83329 5.49992 5.4602 5.49992 4.99996C5.49992 4.53972 5.12682 4.16663 4.66659 4.16663C4.20635 4.16663 3.83325 4.53972 3.83325 4.99996C3.83325 5.4602 4.20635 5.83329 4.66659 5.83329Z" fill="#8C8C8C"/>
<path d="M4.66659 15.8333C5.12682 15.8333 5.49992 15.4602 5.49992 15C5.49992 14.5397 5.12682 14.1666 4.66659 14.1666C4.20635 14.1666 3.83325 14.5397 3.83325 15C3.83325 15.4602 4.20635 15.8333 4.66659 15.8333Z" fill="#8C8C8C"/>
</svg>
