<svg width="23" height="24" viewBox="0 0 23 24" fill="none" xmlns="http://www.w3.org/2000/svg">
<path d="M20.9316 11.8003C20.9316 17.033 16.6896 21.275 11.4569 21.275C6.22407 21.275 1.98207 17.033 1.98207 11.8003C1.98207 6.56747 6.22407 2.32547 11.4569 2.32547C16.6896 2.32547 20.9316 6.56747 20.9316 11.8003Z" fill="#064FA4"/>
<path d="M15.2755 8.92908C15.553 9.20658 15.553 9.65652 15.2755 9.934L10.5381 14.6714C10.2606 14.9489 9.8107 14.9489 9.53316 14.6714L7.6382 12.7764C7.36069 12.4989 7.36069 12.0491 7.6382 11.7715C7.91571 11.494 8.36564 11.494 8.64315 11.7715L10.0356 13.164L12.1531 11.0465L14.2706 8.92908C14.5481 8.65157 14.998 8.65157 15.2755 8.92908Z" fill="white"/>
</svg>
