<svg width="25" height="24" viewBox="0 0 25 24" fill="none" xmlns="http://www.w3.org/2000/svg">
<path d="M12.5 5.50066L11.9596 6.02076C12.101 6.16766 12.2961 6.25066 12.5 6.25066C12.7039 6.25066 12.899 6.16766 13.0404 6.02076L12.5 5.50066ZM9.92605 18.3219C8.41039 17.1271 6.75307 15.9603 5.43829 14.4798C4.14922 13.0282 3.25 11.3345 3.25 9.13713H1.75C1.75 11.8026 2.8605 13.8361 4.31672 15.4758C5.74723 17.0866 7.57077 18.3752 8.99742 19.4999L9.92605 18.3219ZM3.25 9.13713C3.25 6.98626 4.46537 5.18255 6.12436 4.42422C7.73607 3.68751 9.90166 3.88261 11.9596 6.02076L13.0404 4.98056C10.5985 2.44355 7.76409 2.02542 5.50076 3.05999C3.28471 4.07295 1.75 6.42506 1.75 9.13713H3.25ZM8.99742 19.4999C9.50965 19.9037 10.0595 20.3343 10.6168 20.6599C11.1739 20.9854 11.8096 21.25 12.5 21.25V19.75C12.1904 19.75 11.8261 19.6293 11.3736 19.3648C10.9213 19.1005 10.4521 18.7366 9.92605 18.3219L8.99742 19.4999ZM16.0026 19.4999C17.4292 18.3752 19.2528 17.0866 20.6833 15.4758C22.1395 13.8361 23.25 11.8026 23.25 9.13713H21.75C21.75 11.3345 20.8508 13.0282 19.5617 14.4798C18.2469 15.9603 16.5896 17.1271 15.074 18.3219L16.0026 19.4999ZM23.25 9.13713C23.25 6.42506 21.7153 4.07295 19.4992 3.05999C17.2359 2.02542 14.4015 2.44355 11.9596 4.98056L13.0404 6.02076C15.0983 3.88261 17.2639 3.68751 18.8756 4.42422C20.5346 5.18255 21.75 6.98626 21.75 9.13713H23.25ZM15.074 18.3219C14.5479 18.7366 14.0787 19.1005 13.6264 19.3648C13.1739 19.6293 12.8096 19.75 12.5 19.75V21.25C13.1904 21.25 13.8261 20.9854 14.3832 20.6599C14.9405 20.3343 15.4903 19.9037 16.0026 19.4999L15.074 18.3219Z" fill="#8C8C8C"/>
</svg>
