<svg width="13" height="13" viewBox="0 0 13 13" fill="none" xmlns="http://www.w3.org/2000/svg">
<g clip-path="url(#clip0_24_1178)">
<path d="M9.07156 1.46616C7.87284 1.46616 6.7847 2.35227 6.3189 3.55052C5.8531 2.35179 4.76496 1.46616 3.56624 1.46616C1.91656 1.46616 0.574219 2.8085 0.574219 4.45818C0.574219 7.69435 5.24369 11.1938 6.17959 11.8621L6.3189 11.9617L6.45821 11.8621C7.39459 11.1938 12.0636 7.69387 12.0636 4.45818C12.0636 2.8085 10.7212 1.46616 9.07156 1.46616ZM6.3189 11.3724C3.85778 9.58435 1.05294 6.74265 1.05294 4.45818C1.05294 3.07227 2.18034 1.94488 3.56624 1.94488C4.88177 1.94488 6.07954 3.31403 6.07954 4.81722H6.55826C6.55826 3.31403 7.75603 1.94488 9.07156 1.94488C10.4575 1.94488 11.5849 3.07227 11.5849 4.45818C11.5849 6.74265 8.78002 9.58435 6.3189 11.3724Z" fill="url(#paint0_linear_24_1178)"/>
</g>
<defs>
<linearGradient id="paint0_linear_24_1178" x1="6.3189" y1="1.46616" x2="6.3189" y2="11.9617" gradientUnits="userSpaceOnUse">
<stop stop-color="#F3CD00"/>
<stop offset="1" stop-color="#064FA4"/>
</linearGradient>
<clipPath id="clip0_24_1178">
<rect width="11.4894" height="11.4894" fill="white" transform="translate(0.574463 0.987427)"/>
</clipPath>
</defs>
</svg>
