<svg width="21" height="20" viewBox="0 0 21 20" fill="none" xmlns="http://www.w3.org/2000/svg">
<path d="M2.16667 10.1699C2.16667 8.26291 2.16667 7.3094 2.59934 6.51895C3.03201 5.72851 3.82246 5.23793 5.40336 4.25678L7.07003 3.22239C8.74116 2.18524 9.57676 1.66667 10.5 1.66667C11.4233 1.66667 12.2588 2.18524 13.93 3.22239L15.5967 4.25677C17.1776 5.23793 17.968 5.72851 18.4007 6.51895C18.8333 7.3094 18.8333 8.26291 18.8333 10.1699V11.4375C18.8333 14.6882 18.8333 16.3136 17.857 17.3234C16.8808 18.3333 15.3093 18.3333 12.1667 18.3333H8.83334C5.69064 18.3333 4.1193 18.3333 3.14298 17.3234C2.16667 16.3136 2.16667 14.6882 2.16667 11.4375V10.1699Z" stroke="#8C8C8C" stroke-width="2"/>
<path d="M13 15H8" stroke="#8C8C8C" stroke-width="1.5" stroke-linecap="round"/>
</svg>
