<svg width="30" height="31" viewBox="0 0 30 31" fill="none" xmlns="http://www.w3.org/2000/svg">
<path d="M15 28C8.09644 28 2.5 22.4035 2.5 15.5C2.5 8.59644 8.09644 3 15 3C21.9035 3 27.5 8.59644 27.5 15.5C27.5 22.4035 21.9035 28 15 28Z" fill="#064FA4"/>
<path d="M16.2121 11.0871C16.5782 10.721 17.1717 10.721 17.5379 11.0871C17.904 11.4532 17.904 12.0468 17.5379 12.4129L14.4509 15.5L17.5379 18.5871C17.904 18.9532 17.904 19.5467 17.5379 19.9129C17.1717 20.279 16.5782 20.279 16.2121 19.9129L12.4621 16.1629C12.096 15.7967 12.096 15.2032 12.4621 14.8371L16.2121 11.0871Z" fill="white"/>
</svg>
