<svg width="30" height="31" viewBox="0 0 30 31" fill="none" xmlns="http://www.w3.org/2000/svg">
<path d="M15 3C21.9036 3 27.5 8.5965 27.5 15.5C27.5 22.4036 21.9036 28 15 28C8.0965 28 2.5 22.4036 2.5 15.5C2.5 8.5965 8.0965 3 15 3Z" fill="#064FA4"/>
<path d="M13.7879 19.9129C13.4218 20.279 12.8283 20.279 12.4621 19.9129C12.096 19.5468 12.096 18.9532 12.4621 18.5871L15.5491 15.5L12.4621 12.4129C12.096 12.0468 12.096 11.4533 12.4621 11.0871C12.8283 10.721 13.4218 10.721 13.7879 11.0871L17.5379 14.8371C17.904 15.2033 17.904 15.7968 17.5379 16.1629L13.7879 19.9129Z" fill="white"/>
</svg>
