<svg width="25" height="24" viewBox="0 0 25 24" fill="none" xmlns="http://www.w3.org/2000/svg">
<path d="M3.5 10.4167C3.5 7.21907 3.5 5.62028 3.87752 5.08241C4.25503 4.54454 5.75832 4.02996 8.76491 3.00079L9.33772 2.80472C10.905 2.26824 11.6886 2 12.5 2C13.3114 2 14.095 2.26824 15.6623 2.80472L16.2351 3.00079C19.2417 4.02996 20.745 4.54454 21.1225 5.08241C21.5 5.62028 21.5 7.21907 21.5 10.4167C21.5 10.8996 21.5 11.4234 21.5 11.9914C21.5 17.6294 17.261 20.3655 14.6014 21.5273C13.88 21.8424 13.5193 22 12.5 22C11.4807 22 11.12 21.8424 10.3986 21.5273C7.73896 20.3655 3.5 17.6294 3.5 11.9914C3.5 11.4234 3.5 10.8996 3.5 10.4167Z" stroke="#8C8C8C" stroke-width="1.5"/>
<path d="M12.5 11C13.6046 11 14.5 10.1046 14.5 9C14.5 7.89543 13.6046 7 12.5 7C11.3954 7 10.5 7.89543 10.5 9C10.5 10.1046 11.3954 11 12.5 11Z" stroke="#8C8C8C" stroke-width="1.5"/>
<path d="M16.5 15C16.5 16.1046 16.5 17 12.5 17C8.5 17 8.5 16.1046 8.5 15C8.5 13.8954 10.2909 13 12.5 13C14.7091 13 16.5 13.8954 16.5 15Z" stroke="#8C8C8C" stroke-width="1.5"/>
</svg>
