<svg width="81" height="48" viewBox="0 0 81 48" fill="none" xmlns="http://www.w3.org/2000/svg">
<path d="M5.684 39.6438L3.55371 43.8404H2.72171L0.582286 39.6438H1.55143L2.83143 42.2404C2.88629 42.3562 2.93505 42.4781 2.97771 42.6061C3.02038 42.728 3.06305 42.8499 3.10571 42.9718H3.16971C3.21238 42.8499 3.25505 42.728 3.29771 42.6061C3.34648 42.4781 3.39524 42.3592 3.444 42.2495L4.724 39.6438H5.684ZM3.59029 43.2187V45.9524H2.676V43.2187H3.59029ZM7.76664 41.381C8.29083 41.381 8.70836 41.4572 9.01922 41.6095C9.33617 41.7619 9.56169 42.0118 9.69579 42.3592C9.83598 42.7006 9.90607 43.1547 9.90607 43.7215C9.90607 44.2945 9.83598 44.7547 9.69579 45.1021C9.56169 45.4434 9.33617 45.6903 9.01922 45.8427C8.70836 45.9951 8.29083 46.0712 7.76664 46.0712C7.24855 46.0712 6.83102 45.9951 6.51407 45.8427C6.20322 45.6903 5.97769 45.4434 5.8375 45.1021C5.69731 44.7547 5.62721 44.2945 5.62721 43.7215C5.62721 43.1547 5.69731 42.7006 5.8375 42.3592C5.97769 42.0118 6.20322 41.7619 6.51407 41.6095C6.83102 41.4572 7.24855 41.381 7.76664 41.381ZM7.76664 42.0941C7.46188 42.0941 7.22112 42.1429 7.04436 42.2404C6.8676 42.3379 6.74264 42.5055 6.6695 42.7432C6.59636 42.9749 6.55979 43.301 6.55979 43.7215C6.55979 44.1421 6.59636 44.4712 6.6695 44.709C6.74264 44.9467 6.8676 45.1143 7.04436 45.2118C7.22112 45.3032 7.46188 45.349 7.76664 45.349C8.07141 45.349 8.31217 45.3032 8.48893 45.2118C8.67179 45.1143 8.79979 44.9467 8.87293 44.709C8.94607 44.4712 8.98264 44.1421 8.98264 43.7215C8.98264 43.301 8.94607 42.9749 8.87293 42.7432C8.79979 42.5055 8.67179 42.3379 8.48893 42.2404C8.31217 42.1429 8.07141 42.0941 7.76664 42.0941ZM11.9199 41.4907V44.581C11.9199 44.8492 11.9717 45.0381 12.0754 45.1478C12.179 45.2575 12.3527 45.3124 12.5965 45.3124C12.8342 45.3124 13.0689 45.2575 13.3005 45.1478C13.5382 45.0381 13.8247 44.8766 14.1599 44.6632L14.2605 45.2392C13.9192 45.5135 13.5839 45.7208 13.2548 45.861C12.9317 46.0012 12.6026 46.0712 12.2674 46.0712C11.4506 46.0712 11.0422 45.6629 11.0422 44.8461V41.4907H11.9199ZM14.9554 41.4907V45.9524H14.2422L14.1599 45.1021L14.0685 44.965V41.4907H14.9554ZM17.0054 41.4907L17.1151 42.3501L17.1974 42.4781V45.9524H16.3196V41.4907H17.0054ZM19.1905 41.381L19.0991 42.2038H18.8156C18.5657 42.2038 18.3097 42.2526 18.0476 42.3501C17.7916 42.4476 17.4777 42.5878 17.1059 42.7707L17.0419 42.2312C17.365 41.9631 17.6911 41.7558 18.0202 41.6095C18.3555 41.4572 18.6785 41.381 18.9894 41.381H19.1905ZM22.8334 39.6438V44.6175C22.8334 44.8126 22.8822 44.9589 22.9797 45.0564C23.0772 45.1478 23.2266 45.1935 23.4277 45.1935H25.686L25.7317 45.8975C25.3233 45.928 24.9089 45.9463 24.4883 45.9524C24.0677 45.9585 23.6471 45.9615 23.2266 45.9615C22.7633 45.9615 22.4311 45.8488 22.23 45.6232C22.0289 45.3916 21.9283 45.1021 21.9283 44.7547V39.6438H22.8334ZM27.5016 41.4907V45.9524H26.633V41.4907H27.5016ZM27.273 39.5798C27.4498 39.5798 27.5381 39.6682 27.5381 39.845V40.3661C27.5381 40.5429 27.4498 40.6312 27.273 40.6312H26.8616C26.6848 40.6312 26.5964 40.5429 26.5964 40.3661V39.845C26.5964 39.6682 26.6848 39.5798 26.8616 39.5798H27.273ZM30.1432 40.1832V44.6815C30.1432 44.8888 30.1859 45.0381 30.2712 45.1295C30.3626 45.2149 30.515 45.2575 30.7284 45.2575H31.3866L31.4872 45.9067C31.3836 45.9372 31.2647 45.9615 31.1306 45.9798C31.0026 45.9981 30.8716 46.0103 30.7375 46.0164C30.6095 46.0286 30.5059 46.0347 30.4266 46.0347C30.0487 46.0347 29.7592 45.9311 29.5581 45.7238C29.3569 45.5166 29.2564 45.2179 29.2564 44.8278V40.1832H30.1432ZM31.5329 41.4907V42.149H28.4518V41.5364L29.3295 41.4907H31.5329ZM34.3191 41.381C35.0079 41.381 35.5047 41.5059 35.8094 41.7558C36.1203 41.9996 36.2757 42.3623 36.2757 42.8438C36.2818 43.2461 36.1934 43.557 36.0106 43.7764C35.8338 43.9958 35.5443 44.1055 35.142 44.1055H32.5637V43.4747H34.9134C35.1146 43.4747 35.2456 43.4107 35.3066 43.2827C35.3675 43.1547 35.398 43.0084 35.398 42.8438C35.3919 42.5695 35.3096 42.3745 35.1511 42.2587C34.9988 42.1429 34.7336 42.085 34.3557 42.085C34.0449 42.085 33.8011 42.1307 33.6243 42.2221C33.4475 42.3135 33.3226 42.472 33.2494 42.6975C33.1824 42.9231 33.1489 43.24 33.1489 43.6484C33.1489 44.1055 33.1915 44.456 33.2769 44.6998C33.3683 44.9375 33.5115 45.1021 33.7066 45.1935C33.9077 45.285 34.1729 45.3307 34.502 45.3307C34.7336 45.3307 34.9927 45.3215 35.2791 45.3032C35.5717 45.2789 35.8369 45.2514 36.0746 45.221L36.166 45.797C36.0197 45.8579 35.843 45.9097 35.6357 45.9524C35.4285 45.989 35.2151 46.0164 34.9957 46.0347C34.7763 46.053 34.5751 46.0621 34.3923 46.0621C33.8681 46.0621 33.4475 45.9829 33.1306 45.8244C32.8136 45.6659 32.582 45.416 32.4357 45.0747C32.2894 44.7272 32.2163 44.2732 32.2163 43.7124C32.2163 43.1272 32.2894 42.664 32.4357 42.3227C32.582 41.9813 32.8106 41.7406 33.1214 41.6004C33.4323 41.4541 33.8315 41.381 34.3191 41.381ZM38.0768 41.4907L38.1865 42.3501L38.2688 42.4781V45.9524H37.3911V41.4907H38.0768ZM40.2619 41.381L40.1705 42.2038H39.8871C39.6372 42.2038 39.3812 42.2526 39.1191 42.3501C38.8631 42.4476 38.5492 42.5878 38.1774 42.7707L38.1134 42.2312C38.4364 41.9631 38.7625 41.7558 39.0916 41.6095C39.4269 41.4572 39.7499 41.381 40.0608 41.381H40.2619ZM43.245 41.381C43.5863 41.381 43.8728 41.4267 44.1044 41.5181C44.3422 41.6034 44.5189 41.7528 44.6347 41.9661C44.7566 42.1794 44.8176 42.472 44.8176 42.8438V45.9524H44.1227L43.9856 44.9832L43.9307 44.8735V42.8438C43.9307 42.5817 43.8698 42.3928 43.7479 42.277C43.626 42.1612 43.3943 42.1032 43.053 42.1032C42.8214 42.1032 42.5288 42.1154 42.1753 42.1398C41.8279 42.1642 41.4835 42.1886 41.1421 42.213L41.0599 41.5821C41.2671 41.5455 41.4957 41.512 41.7456 41.4815C42.0016 41.4511 42.2606 41.4267 42.5227 41.4084C42.7848 41.3901 43.0256 41.381 43.245 41.381ZM44.4153 43.2004L44.4062 43.8221L42.3033 43.8312C42.0961 43.8373 41.9498 43.8922 41.8644 43.9958C41.7852 44.0933 41.7456 44.2305 41.7456 44.4072V44.6815C41.7456 44.901 41.7974 45.0625 41.901 45.1661C42.0107 45.2636 42.1814 45.3124 42.413 45.3124C42.5837 45.3124 42.7726 45.2819 42.9799 45.221C43.1932 45.1539 43.4065 45.0564 43.6199 44.9284C43.8332 44.7943 44.0252 44.6267 44.1959 44.4255V45.0015C44.1349 45.0869 44.0435 45.1905 43.9216 45.3124C43.7997 45.4282 43.6503 45.541 43.4736 45.6507C43.3029 45.7604 43.1109 45.8518 42.8976 45.925C42.6903 45.9981 42.4618 46.0347 42.2119 46.0347C41.9437 46.0347 41.706 45.989 41.4987 45.8975C41.2976 45.8 41.1391 45.6598 41.0233 45.477C40.9075 45.288 40.8496 45.0594 40.8496 44.7912V44.3067C40.8496 43.9592 40.9593 43.688 41.1787 43.493C41.4042 43.2979 41.7151 43.2004 42.1113 43.2004H44.4153ZM46.8357 41.4907L46.9454 42.3501L47.0277 42.4781V45.9524H46.15V41.4907H46.8357ZM49.0209 41.381L48.9294 42.2038H48.646C48.3961 42.2038 48.1401 42.2526 47.878 42.3501C47.622 42.4476 47.3081 42.5878 46.9363 42.7707L46.8723 42.2312C47.1953 41.9631 47.5214 41.7558 47.8506 41.6095C48.1858 41.4572 48.5089 41.381 48.8197 41.381H49.0209ZM53.9237 41.4907L52.1683 46.1627C52.0951 46.3638 52.0007 46.5619 51.8849 46.757C51.7751 46.952 51.638 47.1288 51.4734 47.2873C51.3089 47.4518 51.1138 47.5829 50.8883 47.6804C50.6689 47.7779 50.4129 47.8267 50.1203 47.8267L50.038 47.269C50.4037 47.1532 50.6841 47.0008 50.8791 46.8118C51.0803 46.6229 51.2388 46.3912 51.3546 46.117L51.5831 45.5684C51.6319 45.4404 51.6807 45.3002 51.7294 45.1478C51.7782 44.9893 51.8239 44.8522 51.8666 44.7364L52.9729 41.4907H53.9237ZM50.2666 41.4907L51.3911 44.7364C51.4216 44.8278 51.4491 44.9223 51.4734 45.0198C51.5039 45.1112 51.5283 45.2057 51.5466 45.3032H51.766L51.4826 45.9524H51.2266C51.1534 45.9524 51.0894 45.9341 51.0346 45.8975C50.9797 45.8549 50.9401 45.797 50.9157 45.7238L49.3249 41.4907H50.2666ZM63.0832 41.4907L61.8215 45.7055C61.8032 45.7787 61.7636 45.8396 61.7027 45.8884C61.6417 45.9311 61.5716 45.9524 61.4924 45.9524H60.7244C60.6451 45.9524 60.572 45.928 60.5049 45.8792C60.444 45.8244 60.4074 45.7573 60.3952 45.6781L59.7095 42.7341C59.6851 42.6183 59.6607 42.5025 59.6364 42.3867C59.6181 42.2709 59.5937 42.149 59.5632 42.021H59.4535C59.4352 42.149 59.4108 42.2709 59.3804 42.3867C59.356 42.5025 59.3316 42.6183 59.3072 42.7341L58.6306 45.6781C58.6124 45.7573 58.5727 45.8244 58.5118 45.8792C58.4508 45.928 58.3746 45.9524 58.2832 45.9524H57.5335C57.4543 45.9524 57.3842 45.9311 57.3232 45.8884C57.2623 45.8396 57.2226 45.7787 57.2044 45.7055L55.9335 41.4907H56.8478L57.7164 44.6998C57.7407 44.8156 57.7651 44.9314 57.7895 45.0472C57.8139 45.157 57.8352 45.2697 57.8535 45.3855H57.9724C57.9967 45.2697 58.0211 45.157 58.0455 45.0472C58.076 44.9314 58.1034 44.8156 58.1278 44.6998L58.8227 41.765C58.8348 41.6857 58.8684 41.6217 58.9232 41.573C58.9842 41.5181 59.0604 41.4907 59.1518 41.4907H59.8832C59.9686 41.4907 60.0387 41.5181 60.0935 41.573C60.1545 41.6217 60.1941 41.6888 60.2124 41.7741L60.8981 44.6998C60.9225 44.8156 60.9468 44.9314 60.9712 45.0472C60.9956 45.157 61.02 45.2697 61.0444 45.3855H61.1632C61.1937 45.2697 61.2181 45.157 61.2364 45.0472C61.2547 44.9375 61.279 44.8217 61.3095 44.6998L62.1781 41.4907H63.0832ZM65.8917 41.381C66.4158 41.381 66.8334 41.4572 67.1442 41.6095C67.4612 41.7619 67.6867 42.0118 67.8208 42.3592C67.961 42.7006 68.0311 43.1547 68.0311 43.7215C68.0311 44.2945 67.961 44.7547 67.8208 45.1021C67.6867 45.4434 67.4612 45.6903 67.1442 45.8427C66.8334 45.9951 66.4158 46.0712 65.8917 46.0712C65.3736 46.0712 64.956 45.9951 64.6391 45.8427C64.3282 45.6903 64.1027 45.4434 63.9625 45.1021C63.8223 44.7547 63.7522 44.2945 63.7522 43.7215C63.7522 43.1547 63.8223 42.7006 63.9625 42.3592C64.1027 42.0118 64.3282 41.7619 64.6391 41.6095C64.956 41.4572 65.3736 41.381 65.8917 41.381ZM65.8917 42.0941C65.5869 42.0941 65.3461 42.1429 65.1694 42.2404C64.9926 42.3379 64.8677 42.5055 64.7945 42.7432C64.7214 42.9749 64.6848 43.301 64.6848 43.7215C64.6848 44.1421 64.7214 44.4712 64.7945 44.709C64.8677 44.9467 64.9926 45.1143 65.1694 45.2118C65.3461 45.3032 65.5869 45.349 65.8917 45.349C66.1964 45.349 66.4372 45.3032 66.6139 45.2118C66.7968 45.1143 66.9248 44.9467 66.9979 44.709C67.0711 44.4712 67.1077 44.1421 67.1077 43.7215C67.1077 43.301 67.0711 42.9749 66.9979 42.7432C66.9248 42.5055 66.7968 42.3379 66.6139 42.2404C66.4372 42.1429 66.1964 42.0941 65.8917 42.0941ZM69.8804 41.4907L69.9901 42.3501L70.0724 42.4781V45.9524H69.1947V41.4907H69.8804ZM72.0655 41.381L71.9741 42.2038H71.6907C71.4408 42.2038 71.1848 42.2526 70.9227 42.3501C70.6667 42.4476 70.3528 42.5878 69.9809 42.7707L69.9169 42.2312C70.24 41.9631 70.5661 41.7558 70.8952 41.6095C71.2305 41.4572 71.5535 41.381 71.8644 41.381H72.0655ZM73.7958 39.5524L73.7867 44.6815C73.7867 44.8705 73.8385 45.0137 73.9421 45.1112C74.0518 45.2088 74.2011 45.2575 74.3901 45.2575H74.8107L74.9112 45.9067C74.8503 45.9372 74.7649 45.9615 74.6552 45.9798C74.5516 45.9981 74.4419 46.0103 74.3261 46.0164C74.2164 46.0286 74.1219 46.0347 74.0427 46.0347C73.7013 46.0347 73.427 45.9372 73.2198 45.7421C73.0187 45.5471 72.9181 45.2636 72.9181 44.8918V39.5524H73.7958ZM77.1671 41.381C77.4657 41.381 77.7583 41.4206 78.0448 41.4998C78.3313 41.573 78.6025 41.6949 78.8585 41.8655L78.8037 42.3775C78.5355 42.2922 78.2947 42.2252 78.0814 42.1764C77.8741 42.1276 77.6486 42.1032 77.4048 42.1032C77.161 42.1032 76.9629 42.1459 76.8105 42.2312C76.6642 42.3166 76.5545 42.4751 76.4814 42.7067C76.4143 42.9383 76.3808 43.2674 76.3808 43.6941C76.3808 44.1147 76.4143 44.4438 76.4814 44.6815C76.5484 44.9132 76.6551 45.0747 76.8014 45.1661C76.9477 45.2575 77.1336 45.3032 77.3591 45.3032C77.5297 45.3032 77.6852 45.2819 77.8254 45.2392C77.9656 45.1966 78.1118 45.1265 78.2642 45.029C78.4166 44.9314 78.5964 44.8095 78.8037 44.6632L78.8768 45.2301C78.6452 45.4617 78.3739 45.6598 78.0631 45.8244C77.7583 45.9829 77.42 46.0621 77.0482 46.0621C76.4875 46.0621 76.0852 45.864 75.8414 45.4678C75.5976 45.0655 75.4757 44.4773 75.4757 43.7032C75.4757 43.1181 75.5366 42.6579 75.6585 42.3227C75.7865 41.9813 75.9755 41.7406 76.2254 41.6004C76.4753 41.4541 76.7892 41.381 77.1671 41.381ZM79.5808 39.5524V45.9524H78.8859L78.7854 45.1661L78.6939 45.093V42.0575L78.7488 41.9204C78.7244 41.7497 78.7092 41.5821 78.7031 41.4175C78.697 41.253 78.6939 41.0792 78.6939 40.8964V39.5524H79.5808Z" fill="url(#paint0_linear_186_3862)"/>
<path d="M40.9523 30.0285C42.4219 30.0285 43.6386 31.0999 43.8468 32.49H38.0582C38.266 31.0999 39.4827 30.0285 40.9523 30.0285ZM45.022 32.49L68.2098 23.0774L67.9363 22.4426L44.8832 32.3294C44.8242 31.9413 44.708 31.5726 44.5417 31.2307L64.6658 14.6591L64.2112 14.135L44.451 31.0458C44.2549 30.6908 44.0025 30.371 43.709 30.0926L58.8937 7.53304L58.3065 7.15742L43.5578 29.9574C43.2387 29.6846 42.8772 29.4588 42.4817 29.2962L50.6644 2.68343L49.9923 2.4901L42.2892 29.2269C41.9021 29.0901 41.4883 29.0108 41.0566 28.9994L41.3025 -4.60991e-06H40.6021L40.8482 28.9994C40.5055 29.0088 40.1739 29.0594 39.8578 29.1487L32.1785 2.4901L31.5065 2.68343L39.6637 29.2094C39.2477 29.3499 38.8631 29.5567 38.522 29.8169L23.8644 7.15742L23.2769 7.53304L38.3616 29.9444C38.0409 30.2159 37.7664 30.5368 37.5465 30.8951L17.9597 14.135L17.505 14.6591L37.4388 31.076C37.2474 31.4293 37.1118 31.8149 37.0381 32.2223L14.2346 22.4426L13.961 23.0774L37.0054 32.4317C37.0031 32.4514 36.9987 32.4706 36.9964 32.49H12V33.5238H69.9048V32.49H45.022Z" fill="url(#paint1_linear_186_3862)"/>
<defs>
<linearGradient id="paint0_linear_186_3862" x1="40.5" y1="47.9524" x2="40.5" y2="25.1399" gradientUnits="userSpaceOnUse">
<stop stop-color="#064FA4"/>
<stop offset="1" stop-color="#F3CD00"/>
</linearGradient>
<linearGradient id="paint1_linear_186_3862" x1="40.9524" y1="-3.8147e-06" x2="40.9524" y2="69.5239" gradientUnits="userSpaceOnUse">
<stop stop-color="#064FA4"/>
<stop offset="1" stop-color="#F3CD00"/>
</linearGradient>
</defs>
</svg>
